#!OML:ASF F:\VICON\USERDATA\INSTALL\Justin_Nancy\Justin_Nancy.ASF
:FULLY-SPECIFIED
:DEGREES
83
root -8.46068 16.8712 -15.6592 0.622721 0.649731 4.94495
lowerback 6.31677 -0.644627 -5.71257
upperback -0.409251 -1.24201 1.29279
thorax -3.82479 -0.487866 4.67793
lowerneck -14.697 -2.9466 -10.926
upperneck 22.5797 -2.33594 3.93998
head 9.78542 -1.57874 2.90806
rclavicle 2.23633e-015 4.77083e-015
rhumerus -42.0966 -14.8069 -74.6086
rradius 30.3697
rwrist 4.90778
rhand -15.0826 15.6521
rfingers 7.12502
rthumb 11.0851 -14.0351
lclavicle 2.23633e-015 4.77083e-015
lhumerus -26.8492 4.43804 84.5706
lradius 37.9374
lwrist 0.544303
lhand -15.0752 23.9301
lfingers 7.12502
lthumb 11.0922 53.617
rfemur -31.392 9.55126 5.16999
rtibia 14.5665
rfoot -4.61748 -1.78421
rtoes -9.04234
lfemur 9.92199 -4.84946 -34.7031
ltibia 22.1821
lfoot -18.8735 -4.50396
ltoes -0.99629
84
root -8.4553 16.8483 -15.4203 0.503208 1.06797 4.76711
lowerback 6.58217 -0.794007 -5.683
upperback -0.392658 -1.44515 1.51687
thorax -3.92722 -0.58411 4.92166
lowerneck -14.8903 -2.88449 -11.1138
upperneck 22.8227 -2.17236 3.91805
head 9.89881 -1.52621 2.95551
rclavicle 1.63997e-014 0
rhumerus -42.2244 -15.0209 -73.944
rradius 29.6818
rwrist 5.69668
rhand -14.8451 15.1682
rfingers 7.12502
rthumb 11.3141 -14.5066
lclavicle 1.63997e-014 0
lhumerus -26.7278 5.59715 84.4507
lradius 38.3659
lwrist 1.08062
lhand -14.9896 24.1564
lfingers 7.12502
lthumb 11.1747 53.8388
rfemur -30.8046 9.25068 5.31722
rtibia 13.5937
rfoot -5.51197 1.24339
rtoes -11.5224
lfemur 10.5299 -5.43755 -34.6641
ltibia 22.932
lfoot -18.472 -4.70464
ltoes -2.66409
85
root -8.4516 16.8307 -15.1872 0.345264 1.46252 4.35653
lowerback 6.90567 -0.843679 -5.30113
upperback -0.39034 -1.49273 1.64863
thorax -4.10642 -0.60845 4.85714
lowerneck -15.004 -2.88281 -10.9047
upperneck 23.0619 -2.15331 3.6904
head 9.9998 -1.53026 2.84512
rclavicle 3.13086e-015 -6.36111e-015
rhumerus -42.6068 -15.5683 -73.3476
rradius 29.2421
rwrist 6.21459
rhand -14.3435 14.6342
rfingers 7.12502
rthumb 11.7979 -15.0135
lclavicle 3.13086e-015 -6.36111e-015
lhumerus -26.7491 5.98943 84.2897
lradius 38.9038
lwrist 1.9996
lhand -15.2071 24.5598
lfingers 7.12502
lthumb 10.965 54.2534
rfemur -30.408 9.25055 5.68958
rtibia 13.4977
rfoot -6.00014 4.01339
rtoes -12.9553
lfemur 10.9465 -6.15884 -34.4369
ltibia 23.9898
lfoot -17.931 -5.00398
ltoes -4.48711
86
root -8.44409 16.8162 -14.9496 0.319821 1.64068 4.12935
lowerback 6.96758 -0.787192 -5.01158
upperback -0.3646 -1.39534 1.66347
thorax -4.13209 -0.565942 4.7001
lowerneck -15.1941 -2.90923 -10.6425
upperneck 23.2826 -2.18601 3.49503
head 10.1123 -1.54865 2.72967
rclavicle -1.29707e-014 2.14687e-014
rhumerus -42.9699 -15.9796 -73.0444
rradius 29.0009
rwrist 6.46901
rhand -14.6005 13.3978
rfingers 7.12502
rthumb 11.55 -16.264
lclavicle -1.29707e-014 2.14687e-014
lhumerus -26.7277 6.03997 84.141
lradius 39.2892
lwrist 2.77109
lhand -15.4689 24.5683
lfingers 7.12502
lthumb 10.7125 54.2752
rfemur -30.3807 9.22989 5.89708
rtibia 14.2473
rfoot -5.93926 6.85525
rtoes -11.4858
lfemur 11.0084 -6.74058 -34.4607
ltibia 25.3965
lfoot -17.2359 -5.21221
ltoes -7.42121
87
root -8.4374 16.7999 -14.6952 0.249669 1.71731 4.09388
lowerback 6.75243 -0.749946 -4.98108
upperback -0.154308 -1.32899 1.67334
thorax -3.79946 -0.548667 4.67703
lowerneck -15.2278 -2.8801 -10.6699
upperneck 23.0934 -2.1445 3.545
head 10.0478 -1.52062 2.75501
rclavicle 4.67144e-015 -7.15625e-015
rhumerus -42.9155 -16.3991 -72.8339
rradius 28.6836
rwrist 7.12321
rhand -14.2166 8.58716
rfingers 7.12502
rthumb 11.9203 -21.0535
lclavicle 4.67144e-015 -7.15625e-015
lhumerus -26.5117 6.30934 84.0585
lradius 39.4772
lwrist 3.31176
lhand -16.1449 25.9312
lfingers 7.12502
lthumb 10.0604 55.6707
rfemur -30.3317 9.27931 5.93376
rtibia 15.3922
rfoot -5.16014 9.30904
rtoes -9.23325
lfemur 11.0068 -7.20393 -34.7472
ltibia 27.2005
lfoot -16.3335 -5.46533
ltoes -9.26078
88
root -8.43766 16.7818 -14.4409 0.0932452 1.88089 3.87328
lowerback 6.77812 -0.759653 -4.91723
upperback -0.0100814 -1.3309 1.80349
thorax -3.6616 -0.557176 4.77568
lowerneck -15.1508 -2.76887 -10.6527
upperneck 22.8992 -1.99878 3.53821
head 9.95114 -1.4478 2.76683
rclavicle 3.926e-015 -1.03368e-014
rhumerus -42.7448 -16.7595 -72.5005
rradius 28.2883
rwrist 8.17383
rhand -14.2956 11.9389
rfingers 7.12502
rthumb 11.844 -17.7061
lclavicle 3.926e-015 -1.03368e-014
lhumerus -26.3778 6.87619 83.9722
lradius 39.5065
lwrist 3.63087
lhand -16.676 26.7942
lfingers 7.12502
lthumb 9.54795 56.5579
rfemur -30.2958 9.76879 6.07599
rtibia 16.9828
rfoot -3.79884 10.5022
rtoes -9.44905
lfemur 10.8606 -7.58138 -34.739
ltibia 29.2704
lfoot -14.9722 -6.00211
ltoes -8.50558
89
root -8.44038 16.7747 -14.1974 -0.035529 2.20239 3.32599
lowerback 7.07899 -0.845988 -4.55195
upperback 0.0046052 -1.41838 2.08851
thorax -3.80634 -0.6008 4.88394
lowerneck -15.4778 -2.65617 -10.5947
upperneck 23.1011 -1.75021 3.28191
head 10.0648 -1.36029 2.70041
rclavicle 5.01931e-015 7.95139e-016
rhumerus -42.6833 -16.92 -72.0513
rradius 27.8056
rwrist 9.10358
rhand -14.2911 13.189
rfingers 7.12502
rthumb 11.8484 -16.4558
lclavicle 5.01931e-015 7.95139e-016
lhumerus -26.4245 7.61355 83.8808
lradius 39.5212
lwrist 3.34411
lhand -17.93 23.1223
lfingers 7.12502
lthumb 8.33788 52.9377
rfemur -30.3161 10.5763 6.46309
rtibia 18.7081
rfoot -1.98809 10.3242
rtoes -9.571
lfemur 10.391 -7.96139 -34.2941
ltibia 31.6144
lfoot -13.2575 -6.10274
ltoes -9.6938
90
root -8.43624 16.7793 -13.9535 0.0134105 2.72101 3.17353
lowerback 7.21355 -1.01393 -4.49379
upperback -0.105817 -1.63689 2.26115
thorax -3.96822 -0.701654 5.06042
lowerneck -15.5412 -2.56391 -10.6908
upperneck 23.3093 -1.5313 3.068
head 10.137 -1.29788 2.67171
rclavicle -3.52843e-015 -2.70347e-014
rhumerus -42.8205 -17.0399 -71.5604
rradius 27.2727
rwrist 9.97405
rhand -14.9079 13.9143
rfingers 7.12502
rthumb 11.2535 -15.7639
lclavicle -3.52843e-015 -2.70347e-014
lhumerus -26.8551 8.23095 83.8043
lradius 39.7659
lwrist 3.25738
lhand -18.0698 27.3826
lfingers 7.12502
lthumb 8.20293 57.2034
rfemur -30.4403 11.0674 6.42211
rtibia 20.4088
rfoot -0.731838 9.5324
rtoes -8.7316
lfemur 9.58695 -8.30112 -34.2439
ltibia 34.2099
lfoot -11.2388 -6.2458
ltoes -12.6494
91
root -8.42623 16.7927 -13.7049 -0.195069 3.24667 2.85115
lowerback 7.48773 -1.11896 -4.15882
upperback -0.155611 -1.75477 2.34564
thorax -4.16726 -0.759081 4.98114
lowerneck -15.167 -2.50564 -10.5169
upperneck 23.3703 -1.48524 2.84974
head 10.0816 -1.28994 2.5728
rclavicle 2.18663e-015 1.03368e-014
rhumerus -43.0882 -17.3869 -71.216
rradius 26.9833
rwrist 10.5233
rhand -15.1546 13.831
rfingers 7.12502
rthumb 11.0157 -15.86
lclavicle 2.18663e-015 1.03368e-014
lhumerus -27.3612 8.41579 83.6843
lradius 39.9418
lwrist 3.3634
lhand -19.3982 29.9302
lfingers 7.12502
lthumb 6.9208 59.797
rfemur -30.2536 11.5981 6.65453
rtibia 22.1431
rfoot -0.747606 8.48124
rtoes -9.85682
lfemur 8.73243 -8.24813 -33.9976
ltibia 36.9687
lfoot -8.42179 -6.76615
ltoes -14.6198
92
root -8.41393 16.8039 -13.4582 -0.513336 3.73912 2.45025
lowerback 7.85155 -1.11069 -3.65516
upperback -0.0270367 -1.70634 2.40715
thorax -4.25524 -0.744818 4.76385
lowerneck -15.4207 -2.55083 -10.2893
upperneck 23.5648 -1.53184 2.67883
head 10.2002 -1.31469 2.4695
rclavicle 3.53837e-014 -7.15625e-015
rhumerus -43.001 -18.104 -70.8549
rradius 26.5817
rwrist 10.8667
rhand -14.952 13.843
rfingers 7.12502
rthumb 11.211 -15.8375
lclavicle 3.53837e-014 -7.15625e-015
lhumerus -27.4548 8.25477 83.7508
lradius 39.9859
lwrist 3.43438
lhand -22.4273 35.1393
lfingers 7.12502
lthumb 3.99611 65.0816
rfemur -29.9589 11.8611 7.12437
rtibia 23.9173
rfoot -1.38711 7.58699
rtoes -13.1206
lfemur 7.75473 -7.85924 -33.5764
ltibia 39.8621
lfoot -4.81678 -7.45
ltoes -16.8938
93
root -8.40362 16.8146 -13.2136 -0.793556 4.27314 2.14451
lowerback 8.11424 -1.16546 -3.36788
upperback 0.227904 -1.75283 2.55035
thorax -4.13537 -0.780185 4.75916
lowerneck -16.1089 -2.55214 -10.2731
upperneck 23.7437 -1.43196 2.60227
head 10.3897 -1.27778 2.45302
rclavicle -1.23246e-014 -1.74931e-014
rhumerus -42.6317 -18.4236 -70.6905
rradius 26.3703
rwrist 11.0797
rhand -15.1298 13.7811
rfingers 7.12502
rthumb 11.0396 -15.9085
lclavicle -1.23246e-014 -1.74931e-014
lhumerus -27.1624 8.48668 83.9001
lradius 39.6497
lwrist 3.46168
lhand -19.4933 31.7267
lfingers 7.12502
lthumb 6.82895 61.5965
rfemur -29.5719 11.4016 7.74119
rtibia 25.5833
rfoot -2.02944 7.11026
rtoes -16.5016
lfemur 6.71666 -7.40204 -33.0978
ltibia 42.8803
lfoot -0.273332 -8.26214
ltoes -15.8319
94
root -8.39121 16.8357 -12.9683 -1.11121 4.99116 1.78376
lowerback 8.24471 -1.31497 -3.05936
upperback 0.432125 -1.91872 2.72387
thorax -3.9818 -0.874438 4.78391
lowerneck -16.0981 -2.42879 -10.2441
upperneck 23.5713 -1.22623 2.44648
head 10.3097 -1.19359 2.41833
rclavicle -2.20154e-014 3.18055e-015
rhumerus -42.4701 -18.2463 -70.73
rradius 26.5112
rwrist 10.9208
rhand -15.2001 13.6331
rfingers 7.12502
rthumb 10.9717 -16.0602
lclavicle -2.20154e-014 3.18055e-015
lhumerus -27.0209 8.89642 84.0411
lradius 39.1508
lwrist 3.17128
lhand -18.8432 30.1245
lfingers 7.12502
lthumb 7.45651 59.9731
rfemur -28.8638 10.5037 8.53177
rtibia 27.0557
rfoot -2.74516 7.08606
rtoes -18.1753
lfemur 5.42271 -6.81881 -32.4317
ltibia 46.0273
lfoot 4.09396 -8.56418
ltoes -8.39491
95
root -8.37837 16.856 -12.7273 -1.4191 5.83293 1.34833
lowerback 8.48846 -1.40734 -2.68322
upperback 0.48503 -2.00447 2.85227
thorax -4.06241 -0.921397 4.72278
lowerneck -15.7551 -2.33491 -9.97408
upperneck 23.4476 -1.15348 2.23514
head 10.1905 -1.15763 2.3073
rclavicle -1.04859e-014 1.27222e-014
rhumerus -42.5478 -18.4455 -70.528
rradius 26.3437
rwrist 10.8438
rhand -15.2024 13.8933
rfingers 7.12502
rthumb 10.9695 -15.8001
lclavicle -1.04859e-014 1.27222e-014
lhumerus -27.2877 8.69356 84.2692
lradius 39.1184
lwrist 3.0412
lhand -18.0916 30.7884
lfingers 7.12502
lthumb 8.18192 60.61
rfemur -27.9985 9.6415 9.35927
rtibia 28.2617
rfoot -3.61933 7.75271
rtoes -16.6481
lfemur 3.93593 -6.09326 -31.6418
ltibia 49.2129
lfoot 7.06386 -8.8523
ltoes 0.0625593
